<?xml version="1.0" encoding="utf-8"?>
<!-- Generator: Adobe Illustrator 16.0.0, SVG Export Plug-In . SVG Version: 6.00 Build 0)  -->
<!DOCTYPE svg PUBLIC "-//W3C//DTD SVG 1.1//EN" "http://www.w3.org/Graphics/SVG/1.1/DTD/svg11.dtd">
<svg version="1.1" id="Calque_1" xmlns="http://www.w3.org/2000/svg" xmlns:xlink="http://www.w3.org/1999/xlink" x="0px" y="0px"
	 width="1280.067px" height="112.68px" viewBox="0 0 1280.067 112.68" enable-background="new 0 0 1280.067 112.68"
	 xml:space="preserve">
<g>
	<path fill="none" stroke="#FFFFFF" stroke-miterlimit="10" d="M0.037,16.089c296.108,21.854,982.838,18.246,1280,0"/>
	<g>
		<g>
			<path fill="#FFFFFF" d="M150.117,28.375c39.612,3.93,67.61,5.021,95.621,3.146L245,48.504c0,0-33.489,2.886-35.542,34.826
				l-27.641-1.197c0,0-0.648-31.225-32.387-37.939L150.117,28.375z"/>
			<g>
				<path fill="#FECE6E" d="M199.279,35.579c-0.994-0.716-2.199-1.163-3.514-1.221c-1.303-0.056-2.53,0.278-3.575,0.894l3.4,3.71
					L199.279,35.579z"/>
				<path fill="#FECE6E" d="M191.779,46.187c0.976,0.679,2.147,1.104,3.423,1.159c1.289,0.057,2.504-0.272,3.542-0.876l-3.323-3.623
					L191.779,46.187z"/>
				<path fill="#FECE6E" d="M190.17,37.117c-0.691,0.983-1.124,2.165-1.18,3.453c-0.058,1.316,0.283,2.555,0.912,3.607l3.662-3.359
					L190.17,37.117z"/>
				<path fill="#FECE6E" d="M200.777,44.619c0.705-0.99,1.145-2.183,1.201-3.485c0.055-1.276-0.267-2.479-0.859-3.51l-3.67,3.363
					L200.777,44.619z"/>
				<path fill="#FFFFFF" d="M200.777,44.619l-3.328-3.632l3.67-3.363c-0.462-0.804-1.088-1.503-1.839-2.045l-3.689,3.383l-3.4-3.71
					c-0.798,0.473-1.487,1.107-2.021,1.865l3.394,3.701l-3.662,3.359c0.474,0.794,1.116,1.479,1.877,2.009l3.643-3.34l3.323,3.623
					C199.546,46.004,200.239,45.372,200.777,44.619z"/>
			</g>
			
				<rect x="147.295" y="3.868" transform="matrix(0.9991 0.0434 -0.0434 0.9991 0.9056 -6.4743)" fill="#498DA8" width="4.5" height="27.5"/>
			
				<rect x="147.013" y="21.751" transform="matrix(0.9991 0.0432 -0.0432 0.9991 1.1811 -6.4231)" fill="#5B5F8E" width="4.5" height="4.751"/>
			
				<rect x="241.66" y="7.959" transform="matrix(0.9991 0.0432 -0.0432 0.9991 1.1652 -10.5136)" fill="#498DA8" width="4.5" height="27.5"/>
			
				<rect x="241.378" y="25.843" transform="matrix(0.9991 0.0432 -0.0432 0.9991 1.4458 -10.4943)" fill="#5B5F8E" width="4.5" height="4.75"/>
		</g>
		<g>
			<path fill="#FFFFFF" d="M434.582,36.661c39.744,2.209,65.258,2.582,93.162-0.504v9c0,0-34.666,9.971-37,44.332h-16.668
				c0,0-1.831-37.061-39.494-44.193V36.661z"/>
			<g>
				<path fill="#FECE6E" d="M455.964,41.731l4.294,3.121l-1.641,5.047l4.294-3.119l4.294,3.119l-1.641-5.047l4.294-3.121h-5.308
					l-1.211-3.727c-0.282-0.01-0.564-0.02-0.848-0.029l-1.221,3.756H455.964z"/>
				<path fill="#FECE6E" d="M452.025,46.065h-5.308l-1.64-5.047l-1.64,5.047h-5.308l0.239,0.174
					c3.531,0.938,6.705,2.156,9.568,3.582l-0.207-0.637L452.025,46.065z"/>
				<path fill="#FECE6E" d="M474.152,67.446l-1.641-5.047l4.294-3.119h-5.308l-1.64-5.049l-1.64,5.049h-5.308l4.294,3.119
					l-1.238,3.811c0.137,0.219,0.26,0.439,0.393,0.658l3.499-2.541L474.152,67.446z"/>
				<polygon fill="#FECE6E" points="481.858,67.446 480.219,72.493 474.911,72.493 479.205,75.614 477.564,80.661 481.858,77.542 
					486.152,80.661 484.512,75.614 488.806,72.493 483.498,72.493 				"/>
				<path fill="#FECE6E" d="M501.473,59.28h-5.308l-1.64-5.049l-1.64,5.049h-5.308l4.294,3.119l-1.641,5.047l4.294-3.119
					l3.479,2.527c0.14-0.211,0.275-0.426,0.417-0.633l-1.242-3.822L501.473,59.28z"/>
				<path fill="#FECE6E" d="M519.025,41.019l-1.64,5.047h-5.308l4.294,3.119L516,50.331c3.592-2.09,6.753-3.465,8.84-4.266h-4.175
					L519.025,41.019z"/>
				<path fill="#FECE6E" d="M493.911,41.731l4.294,3.121l-1.641,5.047l4.294-3.119l4.294,3.119l-1.641-5.047l4.294-3.121h-5.308
					l-1.183-3.639c-0.308,0.012-0.617,0.021-0.925,0.031l-1.172,3.607H493.911z"/>
				<polygon fill="#FECE6E" points="481.858,43.292 480.219,48.339 474.911,48.339 479.205,51.458 477.564,56.507 481.858,53.386 
					486.152,56.507 484.512,51.458 488.806,48.339 483.498,48.339 				"/>
			</g>
			
				<rect x="431.332" y="13.517" transform="matrix(0.9935 -0.1137 0.1137 0.9935 -0.2882 49.483)" fill="#498DA8" width="4.5" height="27.5"/>
			
				<rect x="432.072" y="31.365" transform="matrix(0.9936 -0.1133 0.1133 0.9936 -1.0263 49.4213)" fill="#5B5F8E" width="4.5" height="4.75"/>
			
				<rect x="525.494" y="12.643" transform="matrix(0.9997 0.0239 -0.0239 0.9997 0.7806 -12.5924)" fill="#498DA8" width="4.499" height="27.5"/>
			
				<rect x="525.341" y="30.53" transform="matrix(0.9997 0.0234 -0.0234 0.9997 0.9163 -12.3583)" fill="#5B5F8E" width="4.499" height="4.751"/>
		</g>
		<g>
			<path fill="#FFFFFF" d="M583.716,35.482c39.744,2.211,65.258,2.582,93.163-0.504v16c0,0-31.83,2.973-34.164,37.334h-25.667
				c0,0,4.331-30.061-33.332-37.195V35.482z"/>
			<polygon fill="#FECE6E" points="631.007,41.27 626.714,49.277 629.714,49.277 629.726,55.178 633.714,47.115 631.007,47.115 			
				"/>
			
				<rect x="581.924" y="11.464" transform="matrix(0.9969 -0.0781 0.0781 0.9969 -0.184 45.7247)" fill="#498DA8" width="4.499" height="27.5"/>
			
				<rect x="582.433" y="29.335" transform="matrix(0.9969 -0.0781 0.0781 0.9969 -0.6902 45.7745)" fill="#5B5F8E" width="4.5" height="4.749"/>
			
				<rect x="671.311" y="11.464" transform="matrix(0.9969 -0.0781 0.0781 0.9969 0.0888 52.6981)" fill="#498DA8" width="4.5" height="27.5"/>
			
				<rect x="671.82" y="29.335" transform="matrix(0.9969 -0.0781 0.0781 0.9969 -0.4171 52.7577)" fill="#5B5F8E" width="4.5" height="4.749"/>
		</g>
		<g>
			<path fill="#FFFFFF" d="M1024.686,31.439c39.797-0.812,65.266-2.377,92.855-7.572l1.214,15.955c0,0-31.513,5.377-31.232,39.816
				l-25.593,1.947c0,0,2.038-30.303-36.059-34.559L1024.686,31.439z"/>
			<polygon fill="#FECE6E" points="1063.843,38.4 1065.831,34.865 1078.294,33.916 1080.794,37.111 1072.964,46.23 			"/>
			
				<rect x="1114.533" y="0.144" transform="matrix(0.9963 -0.0864 0.0864 0.9963 2.9761 96.5473)" fill="#498DA8" width="4.498" height="27.5"/>
			
				<rect x="1115.095" y="18.01" transform="matrix(0.9963 -0.0864 0.0864 0.9963 2.4147 96.5784)" fill="#5B5F8E" width="4.5" height="4.748"/>
			
				<rect x="1021.64" y="7.212" transform="matrix(0.9911 -0.1333 0.1333 0.9911 6.3433 136.6728)" fill="#498DA8" width="4.498" height="27.501"/>
			
				<rect x="1022.507" y="25.044" transform="matrix(0.9911 -0.1328 0.1328 0.9911 5.4371 136.3487)" fill="#5B5F8E" width="4.5" height="4.75"/>
		</g>
		<g>
			<path fill="#FFFFFF" d="M893.721,36.484c39.798,0.795,65.309,0.261,93.086-3.816l0.568,15.99c0,0-31.704,4.102-32.814,38.523
				l-25.65,0.913c0,0,3.26-30.196-34.633-35.987L893.721,36.484z"/>
			<g>
				<path fill="#FECE6E" d="M901.92,44.986c3.104-0.111,5.532-2.717,5.422-5.822c-0.037-1.05-0.366-2.02-0.897-2.844
					c-3.032-0.039-6.141-0.087-9.35-0.146c-0.664,0.961-1.041,2.134-0.996,3.391C896.209,42.669,898.816,45.096,901.92,44.986z"/>
				<circle fill="#FECE6E" cx="951.031" cy="50.744" r="5.625"/>
				<circle fill="#FECE6E" cx="947.154" cy="70.019" r="6.125"/>
				<path fill="#FECE6E" d="M976.861,33.611c-0.048,0.437-0.076,0.878-0.061,1.331c0.18,5.036,4.407,8.974,9.443,8.794
					c0.323-0.011,0.641-0.039,0.954-0.084l-0.404-11.359C983.459,32.782,980.159,33.221,976.861,33.611z"/>
				<circle fill="#FECE6E" cx="931.969" cy="58.051" r="2.955"/>
				
					<ellipse transform="matrix(-0.7318 -0.6815 0.6815 -0.7318 1562.1509 712.7695)" fill="#FECE6E" cx="921.326" cy="49.003" rx="4.186" ry="7.924"/>
			</g>
			
				<rect x="985.291" y="8.508" transform="matrix(0.9746 0.2241 -0.2241 0.9746 30.0927 -220.6934)" fill="#498DA8" width="4.498" height="27.499"/>
			
				<rect x="983.831" y="26.232" transform="matrix(0.9746 0.2237 -0.2237 0.9746 31.4013 -219.9102)" fill="#5B5F8E" width="4.5" height="4.75"/>
			
				<rect x="891.351" y="11.85" transform="matrix(0.9992 -0.0397 0.0397 0.9992 -0.3115 35.5265)" fill="#498DA8" width="4.498" height="27.5"/>
			
				<rect x="891.611" y="29.734" transform="matrix(0.9992 -0.0402 0.0402 0.9992 -0.5684 35.9145)" fill="#5B5F8E" width="4.5" height="4.75"/>
		</g>
		<g>
			<path fill="#FFFFFF" d="M828.625,107.93V33.451c0,0-29.5,1.479-40.75,1.479l-6.75,16.5l-6.25-16.5l-14.25-0.25l-5.25,12.455
				l-4.25-9.195l-2,6.24l-4.75-11.043l-10.25-0.375v75.168l2.75-4.25l5.5,9l5.5-9.75l6,9.75l5.75-10l2.75,7l6.25-13l6.75,13
				c0,0,2-23.209,6-23.209s5.75,26.209,5.75,26.209l6-9.5l6.75,8.25l3.75-8l4.25,9.25l6.5-15l5.25,13.25l5.25-8L828.625,107.93z"/>
			
				<rect x="825.459" y="9.009" transform="matrix(1 -0.0048 0.0048 1 -0.0993 3.9537)" fill="#498DA8" width="4.498" height="27.5"/>
			
				<rect x="825.487" y="26.898" transform="matrix(1 -0.0043 0.0043 1 -0.1192 3.5921)" fill="#5B5F8E" width="4.501" height="4.75"/>
			
				<rect x="730.793" y="9.009" transform="matrix(1 -0.0048 0.0048 1 -0.1003 3.5015)" fill="#498DA8" width="4.498" height="27.5"/>
			
				<rect x="730.821" y="26.898" transform="matrix(1 -0.0043 0.0043 1 -0.1201 3.1813)" fill="#5B5F8E" width="4.501" height="4.75"/>
		</g>
		<g>
			<path fill="#FFFFFF" d="M297.198,32.937c39.669,3.294,65.19,3.361,93.168,1.036l-0.463,16.993c0,0-34.525,1.226-33.978,35.421
				l-27.658-0.754c0,0,6.741-30.996-31.501-36.868L297.198,32.937z"/>
			<path fill="#FECE6E" d="M340.111,66.198c-2.14,0.745-4.48-0.386-5.225-2.526c-0.048-0.139-0.067-0.279-0.1-0.418
				c-0.055,0.52-0.008,1.057,0.175,1.583c0.665,1.913,2.755,2.924,4.667,2.257c1.011-0.352,1.759-1.106,2.152-2.018
				C341.335,65.565,340.78,65.967,340.111,66.198z"/>
			<path fill="#FECE6E" d="M346.876,76.887c-2.141,0.744-4.48-0.387-5.225-2.527c-0.048-0.138-0.067-0.277-0.1-0.416
				c-0.054,0.519-0.008,1.056,0.175,1.582c0.665,1.912,2.755,2.924,4.667,2.257c1.011-0.352,1.76-1.106,2.153-2.019
				C348.1,76.254,347.545,76.654,346.876,76.887z"/>
			<path fill="#FECE6E" d="M355.991,61.372c-2.141,0.744-4.48-0.387-5.225-2.528c-0.048-0.139-0.067-0.277-0.1-0.417
				c-0.054,0.521-0.008,1.058,0.175,1.582c0.665,1.913,2.755,2.924,4.667,2.259c1.011-0.352,1.76-1.107,2.153-2.02
				C357.215,60.737,356.66,61.139,355.991,61.372z"/>
			<path fill="#FECE6E" d="M353.801,49.941c-2.14,0.744-4.48-0.387-5.225-2.528c-0.048-0.138-0.066-0.278-0.1-0.417
				c-0.054,0.52-0.008,1.057,0.175,1.582c0.665,1.913,2.755,2.924,4.667,2.258c1.011-0.352,1.76-1.107,2.153-2.018
				C355.025,49.308,354.47,49.709,353.801,49.941z"/>
			<path fill="#FECE6E" d="M331.861,56.596c-2.14,0.744-4.48-0.387-5.225-2.527c-0.048-0.139-0.067-0.278-0.1-0.418
				c-0.054,0.52-0.008,1.057,0.175,1.583c0.665,1.913,2.755,2.924,4.667,2.257c1.011-0.352,1.76-1.106,2.153-2.018
				C333.085,55.963,332.53,56.363,331.861,56.596z"/>
			<path fill="#FECE6E" d="M328.48,51.224c-2.141,0.745-4.48-0.386-5.225-2.527c-0.048-0.138-0.067-0.278-0.1-0.417
				c-0.055,0.52-0.008,1.057,0.174,1.582c0.665,1.913,2.756,2.924,4.668,2.258c1.011-0.352,1.76-1.107,2.152-2.018
				C329.704,50.59,329.148,50.992,328.48,51.224z"/>
			<path fill="#FECE6E" d="M326.441,46.49c-2.14,0.746-4.48-0.385-5.225-2.525c-0.048-0.139-0.066-0.279-0.1-0.418
				c-0.054,0.52-0.008,1.057,0.175,1.582c0.665,1.913,2.755,2.924,4.668,2.258c1.011-0.352,1.759-1.106,2.152-2.02
				C327.665,45.857,327.11,46.259,326.441,46.49z"/>
			<path fill="#FECE6E" d="M320.816,49.041c-2.14,0.745-4.48-0.386-5.225-2.527c-0.048-0.139-0.067-0.277-0.101-0.418
				c-0.054,0.521-0.008,1.057,0.175,1.583c0.665,1.913,2.755,2.924,4.667,2.259c1.011-0.353,1.759-1.107,2.152-2.02
				C322.04,48.407,321.485,48.809,320.816,49.041z"/>
			<path fill="#FECE6E" d="M313.497,44.588c-2.14,0.746-4.48-0.386-5.225-2.525c-0.048-0.139-0.067-0.279-0.1-0.418
				c-0.054,0.52-0.008,1.057,0.175,1.582c0.665,1.914,2.756,2.924,4.668,2.258c1.011-0.352,1.759-1.106,2.153-2.02
				C314.721,43.955,314.166,44.356,313.497,44.588z"/>
			<path fill="#FECE6E" d="M307.716,38.69c-2.14,0.744-4.48-0.386-5.225-2.527c-0.048-0.138-0.067-0.278-0.101-0.417
				c-0.054,0.52-0.008,1.056,0.175,1.583c0.665,1.912,2.755,2.923,4.668,2.257c1.011-0.352,1.759-1.107,2.152-2.019
				C308.94,38.058,308.385,38.459,307.716,38.69z"/>
			<circle fill="#FECE6E" cx="343.281" cy="42.602" r="3.667"/>
			<path fill="#FECE6E" d="M299.323,43.777c-0.851,0.297-1.729,0.286-2.531,0.045l-0.025,0.945c0.664,0.163,1.379,0.148,2.073-0.094
				c1.011-0.352,1.76-1.106,2.152-2.02C300.546,43.145,299.991,43.546,299.323,43.777z"/>
			
				<rect x="388.359" y="11.336" transform="matrix(0.9996 0.0271 -0.0271 0.9996 0.8243 -10.5874)" fill="#498DA8" width="4.5" height="27.5"/>
			
				<rect x="388.182" y="29.222" transform="matrix(0.9996 0.0271 -0.0271 0.9996 1.0009 -10.5802)" fill="#5B5F8E" width="4.5" height="4.751"/>
			
				<rect x="294.687" y="8.784" transform="matrix(0.9959 -0.0903 0.0903 0.9959 -0.8217 26.8999)" fill="#498DA8" width="4.5" height="27.499"/>
			
				<rect x="295.276" y="26.645" transform="matrix(0.9959 -0.0905 0.0905 0.9959 -1.4054 27.0442)" fill="#5B5F8E" width="4.5" height="4.75"/>
		</g>
	</g>
</g>
</svg>
