<?xml version="1.0" encoding="utf-8"?>
<!-- Generator: Adobe Illustrator 16.0.0, SVG Export Plug-In . SVG Version: 6.00 Build 0)  -->
<!DOCTYPE svg PUBLIC "-//W3C//DTD SVG 1.1//EN" "http://www.w3.org/Graphics/SVG/1.1/DTD/svg11.dtd">
<svg version="1.1" id="Calque_1" xmlns="http://www.w3.org/2000/svg" xmlns:xlink="http://www.w3.org/1999/xlink" x="0px" y="0px"
	 width="57.25px" height="57.25px" viewBox="0 0 57.25 57.25" enable-background="new 0 0 57.25 57.25" xml:space="preserve">
<g>
	<circle fill="#191919" cx="28.56" cy="28.625" r="28.69"/>
	<g>
		<path fill="#F7BB50" d="M38.21,48.628c0,2.93-4.322,5.312-9.65,5.312s-9.65-2.383-9.65-5.312c0-2.932,4.322-5.309,9.65-5.309
			S38.21,45.696,38.21,48.628z"/>
		<polygon fill="#282828" points="19.04,3.776 22.002,15.419 26.806,13.118 28.56,12.987 		"/>
		<polygon fill="#222222" points="28.56,32.399 28.56,12.987 30.292,12.987 35.227,15.419 38.189,3.776 37.86,32.399 34.107,38.265 
			34.703,30.426 		"/>
		<polygon fill="#FFFFFF" points="30.821,27.264 30.821,28.121 33.375,28.121 34.636,26.41 33.375,26.41 		"/>
		<polygon fill="#FFFFFF" points="26.477,27.264 26.806,28.121 24.175,28.121 22.462,26.41 23.803,26.41 		"/>
		<polygon fill="#D8CAB4" points="22.462,30.489 28.56,32.399 28.56,40.955 26.806,40.955 22.922,38.265 		"/>
		<polygon fill="#B39C8E" points="34.703,30.426 34.107,38.265 30.36,40.955 28.56,40.955 28.56,32.399 		"/>
		<polygon fill="#1C1C1C" points="19.829,47.354 19.568,49.596 22.636,52.401 22.636,50.637 23.472,50.206 25.486,51.26 
			26.539,50.428 27.55,50.91 28.56,52.401 28.56,45.104 28.031,45.104 27.507,43.981 27.109,47.267 25.314,47.354 24.263,46.346 
			24.263,44.42 21.452,45.821 		"/>
		<polygon fill="#010102" points="37.288,47.354 37.467,49.596 34.349,52.401 34.615,50.637 33.604,50.166 31.632,51.307 
			30.621,50.387 29.569,50.957 28.56,52.621 28.56,45.104 29.042,45.104 29.658,43.981 29.879,47.267 31.805,47.267 32.772,46.522 
			32.814,44.55 35.756,45.864 		"/>
	</g>
</g>
</svg>
