<?xml version="1.0" encoding="utf-8"?>
<!-- Generator: Adobe Illustrator 16.0.0, SVG Export Plug-In . SVG Version: 6.00 Build 0)  -->
<!DOCTYPE svg PUBLIC "-//W3C//DTD SVG 1.1//EN" "http://www.w3.org/Graphics/SVG/1.1/DTD/svg11.dtd">
<svg version="1.1" id="Calque_1" xmlns="http://www.w3.org/2000/svg" xmlns:xlink="http://www.w3.org/1999/xlink" x="0px" y="0px"
	 width="57.25px" height="57.25px" viewBox="0 0 57.25 57.25" enable-background="new 0 0 57.25 57.25" xml:space="preserve">
<g>
	<circle fill="#F3C54C" cx="28.625" cy="28.625" r="28.625"/>
	<path fill="#F3AC37" d="M29.304,10.234c-0.039,0-0.077,0.002-0.116,0.004v16.072v12.626h8.681V18.274
		C37.869,13.834,34.034,10.234,29.304,10.234z"/>
	<g>
		<path fill="#FFFFFF" d="M28.15,28.828c0.294-0.647,0.459-1.365,0.459-2.121c0-2.832-2.296-5.127-5.128-5.127
			c-2.832,0-5.127,2.295-5.127,5.127s2.296,5.129,5.127,5.129c1.146,0,2.206-0.377,3.059-1.014
			C26.704,29.918,27.322,29.171,28.15,28.828z"/>
		<path fill="#F1F1F1" d="M39.889,26.707c0-2.832-2.296-5.127-5.128-5.127s-5.128,2.295-5.128,5.127
			c0,0.738,0.158,1.439,0.438,2.074c0.916,0.325,1.603,1.137,1.748,2.125c0.833,0.586,1.848,0.93,2.942,0.93
			C37.593,31.836,39.889,29.539,39.889,26.707z"/>
		<path fill="#D0B28B" d="M26.716,32.361c-3.848,0.958-6.671,4.104-6.671,7.842c0,4.496,4.086,8.142,9.128,8.142V33.977
			C28.072,33.977,27.127,33.311,26.716,32.361z"/>
		<path fill="#B3936D" d="M29.172,33.977v14.368c5.042,0,9.128-3.646,9.128-8.142c0-3.738-2.824-6.884-6.672-7.842
			C31.219,33.311,30.273,33.977,29.172,33.977z"/>
		<g>
			<path fill="#F5C545" d="M29.172,28.625c-0.362,0-0.708,0.072-1.022,0.203c-0.828,0.343-1.446,1.09-1.609,1.994
				c-0.028,0.155-0.043,0.314-0.043,0.479c0,0.377,0.078,0.734,0.218,1.061c0.411,0.949,1.356,1.615,2.457,1.615
				c0.006,0,0.01-0.002,0.016-0.002v-5.35C29.183,28.625,29.178,28.625,29.172,28.625z"/>
			<path fill="#F5AE37" d="M31.629,32.361c0.141-0.326,0.219-0.684,0.219-1.061c0-0.134-0.01-0.266-0.029-0.395
				c-0.146-0.988-0.832-1.8-1.748-2.125c-0.275-0.099-0.572-0.153-0.882-0.156v5.35C30.283,33.969,31.221,33.307,31.629,32.361z"/>
		</g>
	</g>
	<g>
		<path fill="none" d="M29.188,7.154c-2.287,0-4.155,1.787-4.289,4.039c0.709-0.345,1.481-0.606,2.298-0.77
			c-0.006-0.066-0.009-0.131-0.009-0.198c0-1.104,0.897-2.001,2-2.001c1.103,0,2.001,0.897,2.001,2.001
			c0,0.067-0.004,0.132-0.01,0.198c0.816,0.163,1.588,0.425,2.297,0.77C33.344,8.941,31.475,7.154,29.188,7.154z"/>
		<path fill="none" d="M29.188,8.449c-0.98,0-1.775,0.796-1.775,1.776c0,0.052,0.003,0.104,0.008,0.153
			c0.57-0.1,1.161-0.153,1.767-0.153c0.606,0,1.196,0.054,1.767,0.153c0.005-0.05,0.008-0.102,0.008-0.153
			C30.963,9.245,30.169,8.449,29.188,8.449z"/>
		<path fill="#010202" d="M27.413,10.226c0-0.98,0.795-1.776,1.775-1.776c0.98,0,1.774,0.796,1.774,1.776
			c0,0.052-0.003,0.104-0.008,0.153c0.076,0.014,0.15,0.029,0.225,0.045c0.006-0.066,0.01-0.131,0.01-0.198
			c0-1.104-0.898-2.001-2.001-2.001c-1.103,0-2,0.897-2,2.001c0,0.067,0.003,0.132,0.009,0.198c0.074-0.016,0.149-0.031,0.224-0.045
			C27.417,10.329,27.413,10.277,27.413,10.226z"/>
		<path fill="#010202" d="M29.188,7.154c2.286,0,4.155,1.787,4.288,4.039c0.077,0.039,0.154,0.075,0.23,0.115
			c-0.076-2.428-2.072-4.381-4.519-4.381c-2.445,0-4.443,1.953-4.519,4.381c0.076-0.04,0.153-0.076,0.23-0.115
			C25.034,8.941,26.902,7.154,29.188,7.154z"/>
	</g>
</g>
</svg>
