<?xml version="1.0" encoding="utf-8"?>
<!-- Generator: Adobe Illustrator 16.0.0, SVG Export Plug-In . SVG Version: 6.00 Build 0)  -->
<!DOCTYPE svg PUBLIC "-//W3C//DTD SVG 1.1//EN" "http://www.w3.org/Graphics/SVG/1.1/DTD/svg11.dtd">
<svg version="1.1" id="Calque_1" xmlns="http://www.w3.org/2000/svg" xmlns:xlink="http://www.w3.org/1999/xlink" x="0px" y="0px"
	 width="57.25px" height="57.25px" viewBox="0 0 57.25 57.25" enable-background="new 0 0 57.25 57.25" xml:space="preserve">
<g>
	<circle fill="#9E322B" cx="28.625" cy="28.625" r="28.625"/>
	<g>
		<polygon fill="#FFFFFF" points="15.411,5.602 18.172,13.052 20.257,14.561 21.947,16.419 21.947,21.21 22.398,23.746 
			21.328,26.507 21.44,30.677 20.145,29.725 19.862,26.563 17.834,24.534 16.933,21.041 17.834,20.139 15.693,18.562 15.712,17.622 
			14.96,15.97 15.242,15.237 14.96,14.448 14.96,13.125 14.453,10.39 15.618,12.062 14.754,9.001 		"/>
		<polygon fill="#DFE0DF" points="42.026,5.62 42.478,9.132 41.67,12.1 42.797,10.653 42.233,13.052 42.233,14.504 42.008,15.218 
			42.233,15.95 41.576,17.659 41.576,18.486 39.472,20.083 40.279,21.097 39.378,24.666 37.312,26.507 37.105,29.624 35.847,30.657 
			35.847,26.507 34.927,23.952 35.453,20.684 35.434,16.419 36.918,14.636 39.247,12.832 		"/>
		<circle fill="#CECDCD" cx="24.634" cy="49.657" r="1.991"/>
		<circle fill="#A7A7A7" cx="32.203" cy="49.657" r="1.991"/>
		<polygon fill="#D6C8B3" points="28.71,23.182 28.71,33.973 26.766,33.973 24.142,31.635 23.826,27.915 22.868,27.145 
			22.85,23.182 		"/>
		<polygon fill="#B9A396" points="34.345,23.182 34.401,27.163 33.48,27.877 33.137,31.807 30.569,33.973 28.71,33.973 
			28.71,23.182 		"/>
		<g>
			<path fill="#A6A6A6" d="M35.456,38.269l-1.375,1.498l-0.056,2.687l0.496,1.591c0.1,0.011,0.2,0.016,0.302,0.016
				c1.618,0,2.931-1.312,2.931-2.931C37.754,39.729,36.771,38.558,35.456,38.269z"/>
			<polygon fill="#FBC552" points="37.895,28.196 37.266,27.202 37.105,29.624 35.847,30.657 35.847,26.507 34.927,23.952 
				35.051,23.182 34.457,23.182 34.401,27.163 33.48,27.877 33.086,32.385 32.053,36.311 31.847,38.434 30.982,40.499 31.508,42.81 
				35.134,46.003 34.521,44.044 34.025,42.453 34.081,39.767 35.456,38.269 36.805,36.799 38.101,33.212 			"/>
		</g>
		<g>
			<path fill="#D3D3D3" d="M23.356,39.928l-1.514-1.646c-1.286,0.31-2.243,1.467-2.243,2.848c0,1.619,1.312,2.931,2.931,2.931
				c0.115,0,0.229-0.008,0.342-0.021l0.484-1.68V39.928z"/>
			<polygon fill="#F2E17C" points="25.479,38.265 25.197,35.86 24.183,32.122 23.826,27.915 22.868,27.145 22.85,23.182 
				22.305,23.182 22.398,23.746 21.328,26.507 21.44,30.677 20.145,29.725 19.937,27.391 19.431,28.271 19.205,33.193 20.464,36.78 
				21.843,38.281 23.356,39.928 23.356,42.359 22.872,44.039 22.305,46.003 25.854,42.753 26.399,40.443 			"/>
		</g>
		<g>
			<path fill="none" stroke="#F3C54C" stroke-miterlimit="10" d="M35.043,21.041c0.003,0.075,0.006,0.149,0.006,0.226v-0.226H35.043
				z"/>
			<path fill="none" stroke="#F3C54C" stroke-miterlimit="10" d="M22.286,21.041v0.226c0-0.076,0.003-0.15,0.006-0.226H22.286z"/>
			<g>
				<path fill="#D5D5D5" d="M27.689,14.959c-2.987,0.46-5.291,2.992-5.397,6.082c-0.003,0.075-0.006,0.149-0.006,0.226v1.943h0.379
					h6.002v-9.56C28.667,14.35,28.008,14.91,27.689,14.959z"/>
				<path fill="#B0B0B0" d="M35.049,23.21v-1.943c0-0.076-0.003-0.15-0.006-0.226c-0.107-3.102-2.427-5.64-5.43-6.087
					c-0.309-0.046-0.946-0.548-0.946-1.304v9.56h6.003H35.049z"/>
			</g>
		</g>
	</g>
</g>
</svg>
