<?xml version="1.0" encoding="utf-8"?>
<!-- Generator: Adobe Illustrator 16.0.0, SVG Export Plug-In . SVG Version: 6.00 Build 0)  -->
<!DOCTYPE svg PUBLIC "-//W3C//DTD SVG 1.1//EN" "http://www.w3.org/Graphics/SVG/1.1/DTD/svg11.dtd">
<svg version="1.1" id="Calque_1" xmlns="http://www.w3.org/2000/svg" xmlns:xlink="http://www.w3.org/1999/xlink" x="0px" y="0px"
	 width="57.25px" height="57.25px" viewBox="0 0 57.25 57.25" enable-background="new 0 0 57.25 57.25" xml:space="preserve">
<g>
	<circle fill="#CC4B45" cx="28.625" cy="28.625" r="28.625"/>
	<path fill="#FEFEFF" d="M28.625,15.693v-2.226l-1.437-1.381l-0.874,2.958l-1.268-0.564l2.001-3.83l1.577,1.408V9.016
		c0,0-4.367,0.113-4.367,3.832c0,0,0.085,1.944,1.409,3.043C25.667,15.891,27.809,15.693,28.625,15.693z"/>
	<path fill="#E6E5E3" d="M32.232,14.48l-1.324,0.649l-0.902-2.959l-1.381,1.297v2.226c0,0,2.113,0.057,2.931,0.197
		c0,0,1.465-0.986,1.465-2.931c0-1.943-1.69-3.944-4.396-3.944v3.043l1.551-1.408L32.232,14.48z"/>
	<polygon fill="#855F38" points="21.328,21.694 21.666,20.342 22.089,19.75 22.54,18.989 24.061,18.989 25.047,19.355 25.921,20.68 
		26.441,22.483 24.935,21.243 23.47,20.736 	"/>
	<path fill="#88603A" d="M19.215,21.779l0.367,5.324c0,0-0.817-2.028-1.859-2.662L19.215,21.779z"/>
	<polygon fill="#5D4432" points="30.823,22.483 31.161,20.736 32.176,19.355 33.359,18.989 34.599,18.849 35.557,20.173 
		35.895,21.723 33.81,20.736 32.288,21.271 	"/>
	<path fill="#5D4432" d="M37.613,27.132l0.366-5.409l1.521,2.705C39.501,24.428,38.008,25.667,37.613,27.132z"/>
	<path fill="#583B28" d="M33.133,29.921c0,0-0.225,3.747-4.535,3.747v0.677l0.281,0.338h0.563l0.15,0.085h1.568l1.249-1.071
		l1.503-0.019l1.165-0.639l0.168-1.089h1.315c0,0,0.882-1.672,0.714-3.006l-0.732-0.901l-1.897,1.465L33.133,29.921z"/>
	<path fill="#83582C" d="M23.977,29.921l-1.465-0.45l-1.859-1.428l-0.789,0.939c0,0,0.545,2.779,0.826,2.986h1.353l0.263,1.108
		l1.015,0.545h1.56l1.145,1.032l1.56,0.113l0.132-0.132h0.746l0.137-0.291v-0.677C28.598,33.668,24.635,33.903,23.977,29.921z"/>
	<path fill="#FFE9CA" d="M19.195,21.815l1.776-1.812l1.227-0.438l-0.532,0.776l-0.338,1.353l2.142-0.958l1.465,0.507l1.507,1.24
		l-0.521-1.804l-0.874-1.324l-0.986-0.366l1.578-0.545h2.986l-0.027,15.224c-4.367-0.046-4.621-3.747-4.621-3.747l-1.465-0.45
		l-1.859-1.428l-0.789,0.939l0.826,2.986h1.353l0.263,1.108l1.015,0.545h1.56l1.145,1.032l1.56,0.113l0.132-0.132h0.746l0.137-0.291
		v4.461h-2.01l-5.917-2.968l-2.366-3.1v-0.789h-0.488c-3.193-0.225-3.531-5.052-3.531-5.052s0-2.837,2.084-2.837
		c2.086,0,3.213,3.043,3.213,3.043L19.195,21.815z"/>
	<path fill="#E1CBAA" d="M28.598,38.806h2l5.945-2.968l2.395-3.1V31.95h0.563c0,0,3.466-0.545,3.466-4.847
		c0-3.099-2.029-3.07-2.029-3.07s-2.226,0.027-3.324,3.099l0.366-5.409l-1.804-1.606l-1.01-0.482l0.391,0.539l0.338,1.55
		l-2.085-0.986l-1.521,0.535l-1.465,1.212l0.338-1.747l1.015-1.381l1.121-0.347l-1.685-0.62l-2.987,0.056l-0.027,15.224
		c0,0,4.197,0.057,4.535-3.747l1.513-0.413l1.897-1.465l0.732,0.901c0,0,0.225,1.165-0.714,3.006h-1.315l-0.168,1.089l-1.165,0.639
		l-1.532,0.044l-1.22,1.046h-1.568l-0.15-0.085h-0.563l-0.281-0.338V38.806z"/>
	<circle fill="#F9BF56" cx="21.216" cy="46.263" r="1.747"/>
	<circle fill="#F9BF56" cx="35.979" cy="46.263" r="1.747"/>
</g>
</svg>
